# xmcd
#
# Track frame offsets:
#	150
#	17641
#	35711
#	53983
#	69913
#	87849
#	107255
#	123131
#	139914
#	158715
#
# Disc length: 2321 seconds
#
# Revision: 2
# Processed by: cddbd v1.5.2PL0 Copyright (c) Steve Scherf et al.
# Submitted via: EasyCDDAExtractor 12.0.0.1
#
DISCID=78090f0a
DTITLE=ศิริพร อำไพพงษ์ - ชุดที่ 7 อกหักเพราะฮักอ้าย
DYEAR=2003
DGENRE=Country
TTITLE0=อกหักเพราะฮักอ้าย
TTITLE1=ก่องข้าวน้อยคอยอ้าย
TTITLE2=อยากอยู่เงียบๆสองคน
TTITLE3=ศิลปินเพลงเดียว
TTITLE4=ห้ามใจช่วยกัน
TTITLE5=เพียงเราฮักกัน
TTITLE6=ตังหวายอายผู้บ่าว
TTITLE7=เปิดใจเจ้าสาว
TTITLE8=ดูงานวันแต่ง
TTITLE9=หนาวใจในงานทุ่ง
EXTD=
EXTT0=
EXTT1=
EXTT2=
EXTT3=
EXTT4=
EXTT5=
EXTT6=
EXTT7=
EXTT8=
EXTT9=
PLAYORDER=
